<svg width="291" height="20" viewBox="0 0 291 20" fill="none" xmlns="http://www.w3.org/2000/svg">
<rect width="105" height="20" rx="2" fill="#FF966F"/>
<path d="M13.82 6.27V13.5H12.84V6.27H13.82ZM16.386 13.5H15.446V8.61H16.286L16.376 9.25C16.626 8.79 17.146 8.47 17.836 8.47C18.596 8.47 19.136 8.85 19.386 9.46C19.616 8.85 20.206 8.47 20.966 8.47C22.086 8.47 22.766 9.17 22.766 10.3V13.5H21.846V10.53C21.846 9.76 21.416 9.32 20.756 9.32C20.046 9.32 19.576 9.82 19.576 10.6V13.5H18.646V10.52C18.646 9.75 18.226 9.33 17.566 9.33C16.856 9.33 16.386 9.82 16.386 10.6V13.5ZM25.1091 13.5H24.1691V8.61H25.0091L25.0991 9.25C25.3491 8.79 25.8691 8.47 26.5591 8.47C27.3191 8.47 27.8591 8.85 28.1091 9.46C28.3391 8.85 28.9291 8.47 29.6891 8.47C30.8091 8.47 31.4891 9.17 31.4891 10.3V13.5H30.5691V10.53C30.5691 9.76 30.1391 9.32 29.4791 9.32C28.7691 9.32 28.2991 9.82 28.2991 10.6V13.5H27.3691V10.52C27.3691 9.75 26.9491 9.33 26.2891 9.33C25.5791 9.33 25.1091 9.82 25.1091 10.6V13.5ZM35.0021 13.62C33.5621 13.62 32.5721 12.58 32.5721 11.06C32.5721 9.53 33.5421 8.47 34.9621 8.47C36.3521 8.47 37.2621 9.43 37.2621 10.88V11.23L33.4821 11.24C33.5521 12.27 34.0921 12.84 35.0221 12.84C35.7521 12.84 36.2321 12.54 36.3921 11.98H37.2721C37.0321 13.03 36.2121 13.62 35.0021 13.62ZM34.9621 9.26C34.1421 9.26 33.6221 9.75 33.5021 10.61H36.3221C36.3221 9.8 35.7921 9.26 34.9621 9.26ZM40.372 13.62C38.952 13.62 38.092 12.56 38.092 11.07C38.092 9.57 38.962 8.47 40.412 8.47C41.162 8.47 41.792 8.8 42.122 9.4V6.14H43.052V13.5H42.212L42.132 12.61C41.812 13.28 41.152 13.62 40.372 13.62ZM40.562 12.77C41.522 12.77 42.112 12.06 42.112 11.04C42.112 10.04 41.522 9.32 40.562 9.32C39.602 9.32 39.042 10.04 39.042 11.04C39.042 12.05 39.602 12.77 40.562 12.77ZM44.9681 7.45C44.6281 7.45 44.3481 7.17 44.3481 6.83C44.3481 6.48 44.6281 6.21 44.9681 6.21C45.3081 6.21 45.5881 6.48 45.5881 6.83C45.5881 7.17 45.3081 7.45 44.9681 7.45ZM44.5081 13.5V8.61H45.4481V13.5H44.5081ZM48.3428 13.62C47.2928 13.62 46.6728 13.03 46.6728 12.14C46.6728 11.24 47.3428 10.68 48.4928 10.59L50.0328 10.47V10.33C50.0328 9.51 49.5428 9.22 48.8828 9.22C48.0928 9.22 47.6428 9.57 47.6428 10.16H46.8228C46.8228 9.14 47.6628 8.47 48.9228 8.47C50.1328 8.47 50.9528 9.11 50.9528 10.43V13.5H50.1528L50.0528 12.71C49.8028 13.27 49.1328 13.62 48.3428 13.62ZM48.6128 12.89C49.5028 12.89 50.0428 12.31 50.0428 11.39V11.13L48.7928 11.23C47.9628 11.31 47.6228 11.63 47.6228 12.11C47.6228 12.63 48.0028 12.89 48.6128 12.89ZM53.6565 13.5H52.7165V9.4H51.7565V8.61H52.7165V7.08H53.6565V8.61H54.6165V9.4H53.6565V13.5ZM57.6212 13.62C56.1812 13.62 55.1912 12.58 55.1912 11.06C55.1912 9.53 56.1612 8.47 57.5812 8.47C58.9712 8.47 59.8812 9.43 59.8812 10.88V11.23L56.1012 11.24C56.1712 12.27 56.7112 12.84 57.6412 12.84C58.3712 12.84 58.8512 12.54 59.0112 11.98H59.8912C59.6512 13.03 58.8312 13.62 57.6212 13.62ZM57.5812 9.26C56.7612 9.26 56.2412 9.75 56.1212 10.61H58.9412C58.9412 9.8 58.4112 9.26 57.5812 9.26ZM64.3255 13.5H63.3055L65.9455 6.27H67.0355L69.6855 13.5H68.6555L68.0055 11.7H64.9655L64.3255 13.5ZM66.3655 7.83L65.2655 10.85H67.7155L66.6055 7.83C66.5555 7.69 66.5055 7.52 66.4855 7.41C66.4655 7.51 66.4155 7.68 66.3655 7.83ZM70.0811 11.06C70.0811 9.53 71.0511 8.47 72.4811 8.47C73.7111 8.47 74.5711 9.17 74.7411 10.26H73.8011C73.6411 9.64 73.1411 9.31 72.5111 9.31C71.6211 9.31 71.0111 9.99 71.0111 11.05C71.0111 12.1 71.5811 12.78 72.4711 12.78C73.1411 12.78 73.6411 12.43 73.8111 11.85H74.7511C74.5611 12.91 73.6511 13.62 72.4711 13.62C71.0311 13.62 70.0811 12.6 70.0811 11.06ZM77.2229 13.5H76.2829V9.4H75.3229V8.61H76.2829V7.08H77.2229V8.61H78.1829V9.4H77.2229V13.5ZM79.5865 7.45C79.2465 7.45 78.9665 7.17 78.9665 6.83C78.9665 6.48 79.2465 6.21 79.5865 6.21C79.9265 6.21 80.2065 6.48 80.2065 6.83C80.2065 7.17 79.9265 7.45 79.5865 7.45ZM79.1265 13.5V8.61H80.0665V13.5H79.1265ZM81.2112 11.05C81.2112 9.54 82.2912 8.48 83.7612 8.48C85.2212 8.48 86.3012 9.54 86.3012 11.05C86.3012 12.56 85.2212 13.62 83.7612 13.62C82.2912 13.62 81.2112 12.56 81.2112 11.05ZM82.1612 11.05C82.1612 12.07 82.8112 12.78 83.7612 12.78C84.7012 12.78 85.3612 12.07 85.3612 11.05C85.3612 10.03 84.7012 9.32 83.7612 9.32C82.8112 9.32 82.1612 10.03 82.1612 11.05ZM88.3817 13.5H87.4417V8.61H88.2917L88.3917 9.36C88.7017 8.8 89.3217 8.47 90.0117 8.47C91.3017 8.47 91.8917 9.26 91.8917 10.51V13.5H90.9517V10.72C90.9517 9.73 90.4917 9.33 89.7717 9.33C88.8917 9.33 88.3817 9.96 88.3817 10.91V13.5Z" fill="#15535B"/>
<rect x="111" width="96" height="20" rx="2" fill="#FFE4B4"/>
<path d="M124.8 13.5H123.84V6.27H124.8L127.29 12.35L129.78 6.27H130.76V13.5H129.8V10.64C129.8 9.29 129.81 8.8 129.86 8.29L127.75 13.5H126.83L124.73 8.31C124.78 8.66 124.8 9.4 124.8 10.41V13.5ZM132.064 11.05C132.064 9.54 133.144 8.48 134.614 8.48C136.074 8.48 137.154 9.54 137.154 11.05C137.154 12.56 136.074 13.62 134.614 13.62C133.144 13.62 132.064 12.56 132.064 11.05ZM133.014 11.05C133.014 12.07 133.664 12.78 134.614 12.78C135.554 12.78 136.214 12.07 136.214 11.05C136.214 10.03 135.554 9.32 134.614 9.32C133.664 9.32 133.014 10.03 133.014 11.05ZM139.234 13.5H138.294V8.61H139.144L139.244 9.36C139.554 8.8 140.174 8.47 140.864 8.47C142.154 8.47 142.744 9.26 142.744 10.51V13.5H141.804V10.72C141.804 9.73 141.344 9.33 140.624 9.33C139.744 9.33 139.234 9.96 139.234 10.91V13.5ZM144.606 7.45C144.266 7.45 143.986 7.17 143.986 6.83C143.986 6.48 144.266 6.21 144.606 6.21C144.946 6.21 145.226 6.48 145.226 6.83C145.226 7.17 144.946 7.45 144.606 7.45ZM144.146 13.5V8.61H145.086V13.5H144.146ZM147.931 13.5H146.991V9.4H146.031V8.61H146.991V7.08H147.931V8.61H148.891V9.4H147.931V13.5ZM149.465 11.05C149.465 9.54 150.545 8.48 152.015 8.48C153.475 8.48 154.555 9.54 154.555 11.05C154.555 12.56 153.475 13.62 152.015 13.62C150.545 13.62 149.465 12.56 149.465 11.05ZM150.415 11.05C150.415 12.07 151.065 12.78 152.015 12.78C152.955 12.78 153.615 12.07 153.615 11.05C153.615 10.03 152.955 9.32 152.015 9.32C151.065 9.32 150.415 10.03 150.415 11.05ZM158.496 8.57V9.43H158.076C157.186 9.43 156.636 9.97 156.636 10.91V13.5H155.696V8.62H156.576L156.636 9.36C156.836 8.85 157.326 8.51 157.996 8.51C158.166 8.51 158.306 8.53 158.496 8.57ZM165.472 13.61C163.412 13.61 162.042 12.13 162.042 9.89C162.042 7.66 163.452 6.15 165.522 6.15C167.152 6.15 168.402 7.12 168.672 8.6H167.622C167.352 7.66 166.542 7.09 165.492 7.09C164.032 7.09 163.072 8.19 163.072 9.88C163.072 11.57 164.032 12.67 165.492 12.67C166.552 12.67 167.392 12.1 167.662 11.21H168.702C168.392 12.65 167.102 13.61 165.472 13.61ZM170.755 13.5H169.815V6.14H170.755V13.5ZM171.919 11.05C171.919 9.54 172.999 8.48 174.469 8.48C175.929 8.48 177.009 9.54 177.009 11.05C177.009 12.56 175.929 13.62 174.469 13.62C172.999 13.62 171.919 12.56 171.919 11.05ZM172.869 11.05C172.869 12.07 173.519 12.78 174.469 12.78C175.409 12.78 176.069 12.07 176.069 11.05C176.069 10.03 175.409 9.32 174.469 9.32C173.519 9.32 172.869 10.03 172.869 11.05ZM177.749 12.08H178.649C178.649 12.58 179.029 12.88 179.649 12.88C180.309 12.88 180.689 12.61 180.689 12.16C180.689 11.83 180.529 11.63 180.019 11.5L179.159 11.3C178.289 11.09 177.879 10.66 177.879 9.94C177.879 9.04 178.639 8.47 179.719 8.47C180.789 8.47 181.489 9.07 181.509 10H180.609C180.589 9.51 180.259 9.2 179.689 9.2C179.099 9.2 178.769 9.46 178.769 9.91C178.769 10.24 179.009 10.46 179.489 10.58L180.349 10.79C181.179 10.99 181.589 11.37 181.589 12.1C181.589 13.03 180.789 13.62 179.629 13.62C178.479 13.62 177.749 13.01 177.749 12.08ZM184.842 13.62C183.402 13.62 182.412 12.58 182.412 11.06C182.412 9.53 183.382 8.47 184.802 8.47C186.192 8.47 187.102 9.43 187.102 10.88V11.23L183.322 11.24C183.392 12.27 183.932 12.84 184.862 12.84C185.592 12.84 186.072 12.54 186.232 11.98H187.112C186.872 13.03 186.052 13.62 184.842 13.62ZM184.802 9.26C183.982 9.26 183.462 9.75 183.342 10.61H186.162C186.162 9.8 185.632 9.26 184.802 9.26ZM189.211 13.5H188.271V6.14H189.211V13.5ZM190.225 15.69V14.92H190.855C191.305 14.92 191.665 14.85 191.895 14.23L192.065 13.76L190.095 8.61H191.085L192.505 12.55L193.955 8.61H194.925L192.615 14.6C192.285 15.44 191.795 15.79 191.045 15.79C190.735 15.79 190.475 15.75 190.225 15.69Z" fill="#15535B"/>
<rect x="213" width="78" height="20" rx="2" fill="#9DEB9D"/>
<path d="M225.42 8.22C225.42 6.98 226.42 6.14 227.91 6.14C229.29 6.14 230.18 6.91 230.26 8.16H229.27C229.22 7.44 228.71 7.02 227.9 7.02C226.99 7.02 226.4 7.48 226.4 8.19C226.4 8.77 226.73 9.12 227.41 9.28L228.6 9.56C229.78 9.83 230.38 10.47 230.38 11.49C230.38 12.79 229.37 13.62 227.83 13.62C226.36 13.62 225.38 12.85 225.32 11.61H226.32C226.34 12.3 226.92 12.74 227.83 12.74C228.79 12.74 229.4 12.29 229.4 11.57C229.4 11 229.09 10.64 228.4 10.48L227.21 10.21C226.03 9.94 225.42 9.26 225.42 8.22ZM232.981 13.62C231.931 13.62 231.311 13.03 231.311 12.14C231.311 11.24 231.981 10.68 233.131 10.59L234.671 10.47V10.33C234.671 9.51 234.181 9.22 233.521 9.22C232.731 9.22 232.281 9.57 232.281 10.16H231.461C231.461 9.14 232.301 8.47 233.561 8.47C234.771 8.47 235.591 9.11 235.591 10.43V13.5H234.791L234.691 12.71C234.441 13.27 233.771 13.62 232.981 13.62ZM233.251 12.89C234.141 12.89 234.681 12.31 234.681 11.39V11.13L233.431 11.23C232.601 11.31 232.261 11.63 232.261 12.11C232.261 12.63 232.641 12.89 233.251 12.89ZM238.295 13.5H237.355V9.4H236.395V8.61H237.355V7.08H238.295V8.61H239.255V9.4H238.295V13.5ZM240.659 7.45C240.319 7.45 240.039 7.17 240.039 6.83C240.039 6.48 240.319 6.21 240.659 6.21C240.999 6.21 241.279 6.48 241.279 6.83C241.279 7.17 240.999 7.45 240.659 7.45ZM240.199 13.5V8.61H241.139V13.5H240.199ZM242.203 12.08H243.103C243.103 12.58 243.483 12.88 244.103 12.88C244.763 12.88 245.143 12.61 245.143 12.16C245.143 11.83 244.983 11.63 244.473 11.5L243.613 11.3C242.743 11.09 242.333 10.66 242.333 9.94C242.333 9.04 243.093 8.47 244.173 8.47C245.243 8.47 245.943 9.07 245.963 10H245.063C245.043 9.51 244.713 9.2 244.143 9.2C243.553 9.2 243.223 9.46 243.223 9.91C243.223 10.24 243.463 10.46 243.943 10.58L244.803 10.79C245.633 10.99 246.043 11.37 246.043 12.1C246.043 13.03 245.243 13.62 244.083 13.62C242.933 13.62 242.203 13.01 242.203 12.08ZM246.666 8.61H247.386V7.83C247.386 6.63 248.046 6.14 248.936 6.14C249.116 6.14 249.326 6.15 249.516 6.18V6.99H249.096C248.486 6.99 248.326 7.3 248.326 7.83V8.61H249.486V9.4H248.326V13.5H247.386V9.4H246.666V8.61ZM251.733 13.62C250.683 13.62 250.063 13.03 250.063 12.14C250.063 11.24 250.733 10.68 251.883 10.59L253.423 10.47V10.33C253.423 9.51 252.933 9.22 252.273 9.22C251.483 9.22 251.033 9.57 251.033 10.16H250.213C250.213 9.14 251.053 8.47 252.313 8.47C253.523 8.47 254.343 9.11 254.343 10.43V13.5H253.543L253.443 12.71C253.193 13.27 252.523 13.62 251.733 13.62ZM252.003 12.89C252.893 12.89 253.433 12.31 253.433 11.39V11.13L252.183 11.23C251.353 11.31 251.013 11.63 251.013 12.11C251.013 12.63 251.393 12.89 252.003 12.89ZM255.425 11.06C255.425 9.53 256.395 8.47 257.825 8.47C259.055 8.47 259.915 9.17 260.085 10.26H259.145C258.985 9.64 258.485 9.31 257.855 9.31C256.965 9.31 256.355 9.99 256.355 11.05C256.355 12.1 256.925 12.78 257.815 12.78C258.485 12.78 258.985 12.43 259.155 11.85H260.095C259.905 12.91 258.995 13.62 257.815 13.62C256.375 13.62 255.425 12.6 255.425 11.06ZM262.567 13.5H261.627V9.4H260.667V8.61H261.627V7.08H262.567V8.61H263.527V9.4H262.567V13.5ZM264.102 11.05C264.102 9.54 265.182 8.48 266.652 8.48C268.112 8.48 269.192 9.54 269.192 11.05C269.192 12.56 268.112 13.62 266.652 13.62C265.182 13.62 264.102 12.56 264.102 11.05ZM265.052 11.05C265.052 12.07 265.702 12.78 266.652 12.78C267.592 12.78 268.252 12.07 268.252 11.05C268.252 10.03 267.592 9.32 266.652 9.32C265.702 9.32 265.052 10.03 265.052 11.05ZM273.132 8.57V9.43H272.712C271.822 9.43 271.272 9.97 271.272 10.91V13.5H270.332V8.62H271.212L271.272 9.36C271.472 8.85 271.962 8.51 272.632 8.51C272.802 8.51 272.942 8.53 273.132 8.57ZM273.79 15.69V14.92H274.42C274.87 14.92 275.23 14.85 275.46 14.23L275.63 13.76L273.66 8.61H274.65L276.07 12.55L277.52 8.61H278.49L276.18 14.6C275.85 15.44 275.36 15.79 274.61 15.79C274.3 15.79 274.04 15.75 273.79 15.69Z" fill="#15535B"/>
</svg>
