<svg width="176" height="80" viewBox="0 0 176 80" fill="none" xmlns="http://www.w3.org/2000/svg">
<path d="M22.88 47.5H17.62V32.88H22.74C27.06 32.88 30.04 35.86 30.04 40.22C30.04 44.52 27.12 47.5 22.88 47.5ZM22.5 35.24H20.18V45.14H22.64C25.56 45.14 27.34 43.26 27.34 40.22C27.34 37.12 25.52 35.24 22.5 35.24ZM36.4847 47.76C33.5447 47.76 31.4847 45.62 31.4847 42.56C31.4847 39.46 33.5047 37.32 36.4047 37.32C39.3647 37.32 41.2447 39.3 41.2447 42.38V43.12L33.8047 43.14C33.9847 44.88 34.9047 45.76 36.5247 45.76C37.8647 45.76 38.7447 45.24 39.0247 44.3H41.2847C40.8647 46.46 39.0647 47.76 36.4847 47.76ZM36.4247 39.32C34.9847 39.32 34.1047 40.1 33.8647 41.58H38.8247C38.8247 40.22 37.8847 39.32 36.4247 39.32ZM46.4598 47.5H44.0198V39.66H42.1198V37.62H44.0198V34.54H46.4598V37.62H48.3798V39.66H46.4598V47.5ZM52.7781 47.76C50.6781 47.76 49.3981 46.54 49.3981 44.68C49.3981 42.86 50.7181 41.72 53.0581 41.54L56.0181 41.32V41.1C56.0181 39.76 55.2181 39.22 53.9781 39.22C52.5381 39.22 51.7381 39.82 51.7381 40.86H49.6581C49.6581 38.72 51.4181 37.32 54.0981 37.32C56.7581 37.32 58.3981 38.76 58.3981 41.5V47.5H56.2581L56.0781 46.04C55.6581 47.06 54.3181 47.76 52.7781 47.76ZM53.5781 45.92C55.0781 45.92 56.0381 45.02 56.0381 43.5V42.98L53.9781 43.14C52.4581 43.28 51.8781 43.78 51.8781 44.58C51.8781 45.48 52.4781 45.92 53.5781 45.92ZM62.0152 35.64C61.1752 35.64 60.5152 34.98 60.5152 34.16C60.5152 33.34 61.1752 32.7 62.0152 32.7C62.8152 32.7 63.4752 33.34 63.4752 34.16C63.4752 34.98 62.8152 35.64 62.0152 35.64ZM60.7952 47.5V37.62H63.2352V47.5H60.7952ZM68.2161 47.5H65.7961V32.62H68.2161V47.5ZM70.0156 44.5H72.3356C72.3556 45.36 72.9956 45.9 74.1156 45.9C75.2556 45.9 75.8756 45.44 75.8756 44.72C75.8756 44.22 75.6156 43.86 74.7356 43.66L72.9556 43.24C71.1756 42.84 70.3156 42 70.3156 40.42C70.3156 38.48 71.9556 37.32 74.2356 37.32C76.4556 37.32 77.9556 38.6 77.9756 40.52H75.6556C75.6356 39.68 75.0756 39.14 74.1356 39.14C73.1756 39.14 72.6156 39.58 72.6156 40.32C72.6156 40.88 73.0556 41.24 73.8956 41.44L75.6756 41.86C77.3356 42.24 78.1756 43 78.1756 44.52C78.1756 46.52 76.4756 47.76 74.0356 47.76C71.5756 47.76 70.0156 46.44 70.0156 44.5ZM87.0441 47.5H84.3841L89.6641 32.88H92.2841L97.5641 47.5H94.8641L93.6841 44.12H88.2241L87.0441 47.5ZM90.6441 37.24L88.9841 41.96H92.9441L91.2641 37.24C91.1441 36.86 91.0041 36.42 90.9641 36.12C90.9041 36.4 90.7841 36.84 90.6441 37.24ZM101.477 47.5H99.0373V37.62H101.297L101.497 38.9C102.117 37.9 103.317 37.32 104.657 37.32C107.137 37.32 108.417 38.86 108.417 41.42V47.5H105.977V42C105.977 40.34 105.157 39.54 103.897 39.54C102.397 39.54 101.477 40.58 101.477 42.18V47.5ZM113.755 47.76C111.655 47.76 110.375 46.54 110.375 44.68C110.375 42.86 111.695 41.72 114.035 41.54L116.995 41.32V41.1C116.995 39.76 116.195 39.22 114.955 39.22C113.515 39.22 112.715 39.82 112.715 40.86H110.635C110.635 38.72 112.395 37.32 115.075 37.32C117.735 37.32 119.375 38.76 119.375 41.5V47.5H117.235L117.055 46.04C116.635 47.06 115.295 47.76 113.755 47.76ZM114.555 45.92C116.055 45.92 117.015 45.02 117.015 43.5V42.98L114.955 43.14C113.435 43.28 112.855 43.78 112.855 44.58C112.855 45.48 113.455 45.92 114.555 45.92ZM124.232 47.5H121.812V32.62H124.232V47.5ZM125.931 52.08V50.04H127.391C128.351 50.04 128.951 49.82 129.371 48.66L129.651 47.92L125.671 37.62H128.251L130.791 44.82L133.471 37.62H135.991L131.151 49.7C130.411 51.54 129.371 52.3 127.751 52.3C127.071 52.3 126.471 52.22 125.931 52.08ZM136.402 44.5H138.722C138.742 45.36 139.382 45.9 140.502 45.9C141.642 45.9 142.262 45.44 142.262 44.72C142.262 44.22 142.002 43.86 141.122 43.66L139.342 43.24C137.562 42.84 136.702 42 136.702 40.42C136.702 38.48 138.342 37.32 140.622 37.32C142.842 37.32 144.342 38.6 144.362 40.52H142.042C142.022 39.68 141.462 39.14 140.522 39.14C139.562 39.14 139.002 39.58 139.002 40.32C139.002 40.88 139.442 41.24 140.282 41.44L142.062 41.86C143.722 42.24 144.562 43 144.562 44.52C144.562 46.52 142.862 47.76 140.422 47.76C137.962 47.76 136.402 46.44 136.402 44.5ZM147.64 35.64C146.8 35.64 146.14 34.98 146.14 34.16C146.14 33.34 146.8 32.7 147.64 32.7C148.44 32.7 149.1 33.34 149.1 34.16C149.1 34.98 148.44 35.64 147.64 35.64ZM146.42 47.5V37.62H148.86V47.5H146.42ZM150.621 44.5H152.941C152.961 45.36 153.601 45.9 154.721 45.9C155.861 45.9 156.481 45.44 156.481 44.72C156.481 44.22 156.221 43.86 155.341 43.66L153.561 43.24C151.781 42.84 150.921 42 150.921 40.42C150.921 38.48 152.561 37.32 154.841 37.32C157.061 37.32 158.561 38.6 158.581 40.52H156.261C156.241 39.68 155.681 39.14 154.741 39.14C153.781 39.14 153.221 39.58 153.221 40.32C153.221 40.88 153.661 41.24 154.501 41.44L156.281 41.86C157.941 42.24 158.781 43 158.781 44.52C158.781 46.52 157.081 47.76 154.641 47.76C152.181 47.76 150.621 46.44 150.621 44.5Z" fill="#03464F"/>
</svg>
