<svg width="144" height="80" viewBox="0 0 144 80" fill="none" xmlns="http://www.w3.org/2000/svg">
<path d="M42.96 40.18C42.96 44.62 40.04 47.74 35.84 47.74C31.66 47.74 28.78 44.64 28.78 40.18C28.78 35.74 31.68 32.62 35.86 32.62C40.04 32.62 42.96 35.72 42.96 40.18ZM40.26 40.18C40.26 37.06 38.54 35.08 35.86 35.08C33.18 35.08 31.46 37.06 31.46 40.18C31.46 43.3 33.18 45.28 35.86 45.28C38.54 45.28 40.26 43.26 40.26 40.18ZM47.7827 47.5L43.8627 37.62H46.4627L48.1827 42.16C48.6027 43.34 48.9427 44.36 49.0627 44.9C49.2027 44.28 49.5627 43.24 49.9827 42.16L51.7827 37.62H54.3027L50.1827 47.5H47.7827ZM59.637 47.76C56.697 47.76 54.637 45.62 54.637 42.56C54.637 39.46 56.657 37.32 59.557 37.32C62.517 37.32 64.397 39.3 64.397 42.38V43.12L56.957 43.14C57.137 44.88 58.057 45.76 59.677 45.76C61.017 45.76 61.897 45.24 62.177 44.3H64.437C64.017 46.46 62.217 47.76 59.637 47.76ZM59.577 39.32C58.137 39.32 57.257 40.1 57.017 41.58H61.977C61.977 40.22 61.037 39.32 59.577 39.32ZM72.5498 37.58V39.84H71.6498C69.8898 39.84 68.7898 40.78 68.7898 42.7V47.5H66.3498V37.64H68.6498L68.7898 39.08C69.2098 38.1 70.1498 37.44 71.4698 37.44C71.8098 37.44 72.1498 37.48 72.5498 37.58ZM77.2944 47.5L73.3744 37.62H75.9744L77.6944 42.16C78.1144 43.34 78.4544 44.36 78.5744 44.9C78.7144 44.28 79.0744 43.24 79.4944 42.16L81.2944 37.62H83.8144L79.6944 47.5H77.2944ZM86.437 35.64C85.597 35.64 84.937 34.98 84.937 34.16C84.937 33.34 85.597 32.7 86.437 32.7C87.237 32.7 87.897 33.34 87.897 34.16C87.897 34.98 87.237 35.64 86.437 35.64ZM85.217 47.5V37.62H87.657V47.5H85.217ZM94.598 47.76C91.658 47.76 89.598 45.62 89.598 42.56C89.598 39.46 91.618 37.32 94.518 37.32C97.478 37.32 99.358 39.3 99.358 42.38V43.12L91.918 43.14C92.098 44.88 93.018 45.76 94.638 45.76C95.978 45.76 96.858 45.24 97.138 44.3H99.398C98.978 46.46 97.178 47.76 94.598 47.76ZM94.538 39.32C93.098 39.32 92.218 40.1 91.978 41.58H96.938C96.938 40.22 95.998 39.32 94.538 39.32ZM103.061 47.5L99.8611 37.62H102.401L103.701 41.86C103.921 42.64 104.121 43.5 104.301 44.42C104.481 43.46 104.661 42.84 104.981 41.86L106.341 37.62H108.821L110.141 41.86C110.261 42.26 110.661 43.74 110.781 44.4C110.941 43.66 111.261 42.48 111.441 41.86L112.761 37.62H115.341L111.921 47.5H109.641L108.281 43.22C107.881 41.92 107.661 40.98 107.581 40.48C107.481 40.94 107.301 41.64 106.801 43.26L105.441 47.5H103.061Z" fill="#03464F"/>
</svg>
