<svg width="56" height="56" viewBox="0 0 56 56" fill="none" xmlns="http://www.w3.org/2000/svg">
<path d="M42.2835 5.25H13.7165C11.4712 5.25 9.31784 6.14188 7.73009 7.72947C6.14234 9.31706 5.25023 11.4703 5.25 13.7156V42.2824C5.24989 43.3944 5.46879 44.4954 5.89422 45.5227C6.31965 46.55 6.94326 47.4835 7.72946 48.2698C8.51566 49.0561 9.44903 49.6798 10.4763 50.1054C11.5036 50.5309 12.6046 50.75 13.7165 50.75H42.2835C43.3954 50.75 44.4964 50.5309 45.5237 50.1054C46.551 49.6798 47.4843 49.0561 48.2705 48.2698C49.0567 47.4835 49.6804 46.55 50.1058 45.5227C50.5312 44.4954 50.7501 43.3944 50.75 42.2824V13.7156C50.7498 11.4703 49.8577 9.31706 48.2699 7.72947C46.6822 6.14188 44.5288 5.25 42.2835 5.25ZM40.3629 43.33C40.3629 43.7941 40.1785 44.2392 39.8503 44.5674C39.5221 44.8956 39.077 45.08 38.6129 45.08C38.1487 45.08 37.7036 44.8956 37.3754 44.5674C37.0472 44.2392 36.8629 43.7941 36.8629 43.33V42.5929C34.2739 44.1682 31.3122 45.0259 28.282 45.0778C25.2519 45.1296 22.2625 44.3738 19.6211 42.8881C16.9798 41.4023 14.7815 39.2401 13.2524 36.6236C11.7232 34.007 10.9182 31.0306 10.92 28C10.9109 25.3019 11.5516 22.6412 12.788 20.2429C12.8734 20.0601 12.9999 19.8191 13.1264 19.5935C13.2393 19.3933 13.3905 19.2173 13.5714 19.0756C13.7523 18.9338 13.9593 18.8291 14.1807 18.7674C14.4021 18.7056 14.6335 18.6881 14.8616 18.7158C15.0898 18.7435 15.3102 18.8158 15.5104 18.9287C15.7106 19.0416 15.8866 19.1928 16.0284 19.3737C16.1701 19.5546 16.2749 19.7616 16.3366 19.983C16.3983 20.2044 16.4158 20.4358 16.3882 20.6639C16.3605 20.8921 16.2881 21.1125 16.1753 21.3127C16.0897 21.4631 16.0043 21.6255 15.929 21.7879C14.9324 23.7066 14.4147 25.8379 14.42 28C14.4159 30.2793 14.9867 32.5228 16.0794 34.5231C17.1722 36.5234 18.7517 38.2158 20.6718 39.4439C22.592 40.672 24.7908 41.3961 27.0649 41.5492C29.3391 41.7024 31.6151 41.2796 33.6826 40.32C33.2619 40.273 32.873 40.0732 32.5897 39.7586C32.3064 39.444 32.1484 39.0364 32.1456 38.613C32.1454 38.3832 32.1906 38.1556 32.2785 37.9432C32.3664 37.7308 32.4953 37.5378 32.6578 37.3753C32.8204 37.2128 33.0133 37.0839 33.2257 36.996C33.4381 36.9081 33.6657 36.8629 33.8956 36.863H38.6125C38.8424 36.8629 39.07 36.9081 39.2824 36.996C39.4948 37.0839 39.6877 37.2128 39.8503 37.3753C40.0128 37.5378 40.1417 37.7308 40.2296 37.9432C40.3175 38.1556 40.3627 38.3832 40.3625 38.613L40.3629 43.33ZM43.2117 35.7574C42.9996 36.1703 42.6321 36.4821 42.1902 36.624C41.7482 36.766 41.268 36.7266 40.8551 36.5145C40.4422 36.3024 40.1304 35.935 39.9884 35.493C39.8464 35.0511 39.8858 34.5708 40.0979 34.1579C41.3838 31.6442 41.8531 28.7918 41.4402 25.9987C41.0273 23.2055 39.7529 20.6109 37.7947 18.5768C35.8366 16.5426 33.2923 15.1704 30.5169 14.6516C27.7415 14.1327 24.8733 14.4931 22.3125 15.6825C22.7307 15.732 23.1165 15.9326 23.3973 16.2465C23.6781 16.5604 23.8347 16.966 23.8376 17.3871C23.8378 17.617 23.7926 17.8446 23.7047 18.057C23.6168 18.2694 23.4879 18.4623 23.3254 18.6249C23.1628 18.7874 22.9699 18.9163 22.7575 19.0042C22.5451 19.0921 22.3175 19.1373 22.0876 19.1371H17.3871C17.1573 19.1373 16.9296 19.0921 16.7173 19.0042C16.5049 18.9163 16.3119 18.7874 16.1494 18.6249C15.9868 18.4623 15.858 18.2694 15.7701 18.057C15.6822 17.8446 15.637 17.617 15.6371 17.3871V12.67C15.6371 12.2059 15.8215 11.7608 16.1497 11.4326C16.4779 11.1044 16.923 10.92 17.3871 10.92C17.8513 10.92 18.2964 11.1044 18.6246 11.4326C18.9528 11.7608 19.1371 12.2059 19.1371 12.67V13.4069C22.3122 11.4756 26.0308 10.6332 29.7282 11.0075C33.4257 11.3818 36.9 12.9525 39.6235 15.481C42.3471 18.0095 44.1712 21.3576 44.8188 25.0171C45.4664 28.6766 44.9021 32.4478 43.2117 35.7574Z" fill="#60D9F4"/>
</svg>
